PathFileType	4	(X/Y/Z)	/Users/niels/Desktop/University/Third Semester/Perception and Action/Exam/Gymnastics Motion Tracking/Code for Gym Tracking/Analyzed Data/Webcam_Backflip/id5_6_trajectory_Sports2D/id5_6_trajectory_Sports2D_px_person00.trc
DataRate	CameraRate	NumFrames	NumMarkers	Units	OrigDataRate	OrigDataStartFrame	OrigNumFrames
29.77272727272727	29.77272727272727	11	22	m	29.77272727272727	66	132
Frame#	Time	Hip			RHip			RKnee			RAnkle			RBigToe			RSmallToe			RHeel			LHip			LKnee			LAnkle			LBigToe			LSmallToe			LHeel			Neck			Head			Nose			RShoulder			RElbow			RWrist			LShoulder			LElbow			LWrist		
		X1	Y1	Z1	X2	Y2	Z2	X3	Y3	Z3	X4	Y4	Z4	X5	Y5	Z5	X6	Y6	Z6	X7	Y7	Z7	X8	Y8	Z8	X9	Y9	Z9	X10	Y10	Z10	X11	Y11	Z11	X12	Y12	Z12	X13	Y13	Z13	X14	Y14	Z14	X15	Y15	Z15	X16	Y16	Z16	X17	Y17	Z17	X18	Y18	Z18	X19	Y19	Z19	X20	Y20	Z20	X21	Y21	Z21	X22	Y22	Z22
66	2.216793893129771	1.0728351423020765	-0.5894588033511649	0.0	1.0765671207121938	-0.5889029721123474	0.0	1.0987010184723027	-0.7096505721751408	0.0	1.0880474280323496	-0.8315570046593701	0.0	1.130860589084045	-0.8710623127462306	0.0	1.1194214957324666	-0.8743693485772084	0.0	1.077715384837206	-0.8479576293557862	0.0	1.071157814418749	-0.5880560889488456	0.0	1.0895276783653962	-0.7096246616579963	0.0	1.0834181320970337	-0.8247013524590987	0.0	1.112441907045779	-0.8602637469542176	0.0	1.1129481371741157	-0.8536223166480921	0.0	1.074075992664176	-0.8413033132151211	0.0	1.0716385334727847	-0.43606514932892887	0.0	1.0778161619708833	-0.36543212110433415	0.0	1.0923384981576314	-0.3907993725589985	0.0	1.0725214698049261	-0.43388781314941705	0.0	1.1088383203659906	-0.37417001414243967	0.0	1.1231370182300644	-0.3173648358383648	0.0	1.0613217981317469	-0.439140250687997	0.0	1.0901411587902363	-0.3829553964500942	0.0	1.0977577540641335	-0.35809032954544134	0.0
67	2.250381679389313	1.0730400325021285	-0.5909086463919293	0.0	1.0764615978414218	-0.5899623203536503	0.0	1.0970262781066462	-0.7123915804237596	0.0	1.0856720711040824	-0.834449308774721	0.0	1.127350036551994	-0.8738902645592366	0.0	1.115563206088958	-0.877034849171048	0.0	1.0757470883784521	-0.8505706625605546	0.0	1.0715663674254863	-0.589018489502176	0.0	1.0903063016227585	-0.7116324179022414	0.0	1.0827175917901197	-0.8274432267020194	0.0	1.1102338237162985	-0.8634306157840448	0.0	1.1114052511739476	-0.8570207392639232	0.0	1.073162908071321	-0.8434916977576308	0.0	1.0705069404668912	-0.43932880806224484	0.0	1.0751870556556713	-0.3686207015254064	0.0	1.0902546302679543	-0.3938360749311976	0.0	1.0702710745043618	-0.43659570622325067	0.0	1.1047192407082902	-0.37604049075970875	0.0	1.1190729805010193	-0.3185598867987167	0.0	1.060388885612309	-0.4408273910551079	0.0	1.0996382734754742	-0.38490725361384265	0.0	1.106282935010705	-0.3448122099298841	0.0
68	2.283969465648855	1.0734830330945575	-0.596578093513509	0.0	1.076629566357793	-0.5952428797055297	0.0	1.0957242561650575	-0.7192379967530265	0.0	1.0832319958793772	-0.8416164586553708	0.0	1.1232480028848117	-0.881366671672894	0.0	1.1110797136013262	-0.8840530057828114	0.0	1.073479346190272	-0.8575036108072428	0.0	1.0721293277318655	-0.5942039159376357	0.0	1.0907082150531546	-0.7178597755073625	0.0	1.0813431564998641	-0.8345635556980434	0.0	1.1076735753077362	-0.870941320447078	0.0	1.109230421236228	-0.8646280734697531	0.0	1.0715374056696008	-0.8499777410085781	0.0	1.069143788659498	-0.44626062420729584	0.0	1.0719020048148906	-0.3748203974307388	0.0	1.0878529634831506	-0.40070227688781984	0.0	1.0678464317508485	-0.44305472815927227	0.0	1.0997278339711556	-0.38131255548151827	0.0	1.1136432515979018	-0.32306583334924416	0.0	1.0590997671389686	-0.44646793364691684	0.0	1.1051109630721871	-0.39101720759882486	0.0	1.112095704965925	-0.3416156072319307	0.0
69	2.317557251908397	1.074187181192557	-0.6065906773179003	0.0	1.0769590866174796	-0.6048792933997387	0.0	1.0948079312663015	-0.7301715280207065	0.0	1.0807554557594121	-0.8530714162542612	0.0	1.1186490917675427	-0.8936234464279806	0.0	1.1060968444329995	-0.8956103418432096	0.0	1.070947315689952	-0.8688089277293171	0.0	1.072894342416021	-0.6038078307811955	0.0	1.090842459537544	-0.7283347634274441	0.0	1.0794629995806044	-0.8460471281834524	0.0	1.1047971592056507	-0.8828648857248534	0.0	1.1065227113811238	-0.8765657091756553	0.0	1.0693539766932139	-0.8608475886503364	0.0	1.0677604058542007	-0.4568753855568346	0.0	1.0682854492480018	-0.38413070506556335	0.0	1.0850977542050302	-0.4116414886612659	0.0	1.0653425952196374	-0.4533246908341645	0.0	1.0938780089131108	-0.3899647720613826	0.0	1.106677658990046	-0.3306680616366759	0.0	1.0578892724314182	-0.4561682284891148	0.0	1.106985263403358	-0.4013010732958735	0.0	1.1154125945101623	-0.34789648099129317	0.0
70	2.351145038167939	1.0751412135311542	-0.6210887497306495	0.0	1.0773833259498153	-0.6190431831312486	0.0	1.09421359801401	-0.7452530077873529	0.0	1.078199439132524	-0.8689504078863955	0.0	1.11379012787178	-0.910587288916702	0.0	1.100890760492757	-0.9118360559077551	0.0	1.0681729430389055	-0.8846391103314496	0.0	1.0739026926414001	-0.6179990361588087	0.0	1.0908437299680678	-0.7431282029456103	0.0	1.0772848990484536	-0.8619178657227262	0.0	1.101823259076312	-0.8991828082548543	0.0	1.10345290227009	-0.8928587627346414	0.0	1.0667380746094264	-0.8762921746310052	0.0	1.0665770370857903	-0.4713762490746902	0.0	1.0648816474488565	-0.3968760980802407	0.0	1.08222423570522	-0.42689164235308374	0.0	1.062881379653309	-0.4676536809610028	0.0	1.0869614653157993	-0.402547249149251	0.0	1.0982258557999434	-0.34181081298813765	0.0	1.0573071327903452	-0.47015157033263894	0.0	1.1061540911404382	-0.4159084445365109	0.0	1.11681552262352	-0.3621565775250657	0.0
71	2.384732824427481	1.0762543411838732	-0.6401550651639448	0.0	1.0778119073348698	-0.6378558948305951	0.0	1.0938864502086032	-0.7646452954614982	0.0	1.0754934521253812	-0.8893826183698992	0.0	1.1090261427022645	-0.9319307005479452	0.0	1.0958519606435244	-0.9326438045021397	0.0	1.065113482372014	-0.9050748658778164	0.0	1.0751515073160778	-0.636814078984531	0.0	1.090824873146186	-0.7623605848440752	0.0	1.0749715942666178	-0.8821830663458774	0.0	1.099084885383959	-0.9196704220150014	0.0	1.1002900559890856	-0.9132852192797833	0.0	1.063758705798342	-0.8964590480060377	0.0	1.0657172642259065	-0.4900821253605804	0.0	1.0621890453152296	-0.413585534304813	0.0	1.079592927860375	-0.4465134768818044	0.0	1.0605211141612854	-0.4863420608922533	0.0	1.0786563129114999	-0.4200689028727785	0.0	1.0883178530200062	-0.357563433340347	0.0	1.057897156942863	-0.48865370861020313	0.0	1.1036091189507937	-0.4350226178159668	0.0	1.1167312322101195	-0.3827613496250173	0.0
72	2.418320610687023	1.077350646706013	-0.6636825892849074	0.0	1.0780256132948582	-0.6612431199958388	0.0	1.093840505314043	-0.7884769518670826	0.0	1.0725507608220672	-0.9141768866993993	0.0	1.1046355719889034	-0.9569639781776426	0.0	1.091262306714456	-0.957491985041575	0.0	1.0616923923171835	-0.9298133475796262	0.0	1.076571009375637	-0.6600630935197134	0.0	1.0908431224375164	-0.7860979382219994	0.0	1.0725662029445617	-0.9066321912386495	0.0	1.0968959152808435	-0.9438757583155933	0.0	1.0973620789495582	-0.9373865960227972	0.0	1.060447720888643	-0.9211133684311714	0.0	1.065183699190079	-0.5130456571671674	0.0	1.060566127815886	-0.4347180479873189	0.0	1.0775487225791094	-0.47026719697021735	0.0	1.0582277556258384	-0.5094919390149508	0.0	1.068968666234907	-0.44334145612067577	0.0	1.076916630443596	-0.379017040665087	0.0	1.0599617340789913	-0.511665225808823	0.0	1.1005413772463126	-0.4586054596336955	0.0	1.1154668683560307	-0.40815747219744447	0.0
73	2.451908396946565	1.0782199891382807	-0.6912534565233751	0.0	1.0777064382845551	-0.6888139347792327	0.0	1.0941240631522833	-0.8165782845932136	0.0	1.0693219661995188	-0.9425252745152001	0.0	1.10065539932098	-0.9843484698810527	0.0	1.0871132615878893	-0.9850799898898236	0.0	1.0579395611479863	-0.957917215884899	0.0	1.0780891174501361	-0.6872672813025923	0.0	1.0909085528920217	-0.8141263145660014	0.0	1.070016214648544	-0.9346343665517247	0.0	1.095405169993506	-0.9710624146130827	0.0	1.094866239784539	-0.9645056696712793	0.0	1.0568263590901712	-0.9493052938596735	0.0	1.0649076267002773	-0.5397443901582097	0.0	1.0601575536667192	-0.4602092994303476	0.0	1.0763921642657228	-0.4975549644223465	0.0	1.0559224455824852	-0.5367802597399776	0.0	1.0584860863696217	-0.4723530944610804	0.0	1.0642400477470424	-0.4065667577642367	0.0	1.063457957200536	-0.5387185068655131	0.0	1.0981781291739352	-0.486313294953449	0.0	1.1134417591619028	-0.4371482942958186	0.0
74	2.485496183206107	1.0787054229641702	-0.7220360805448203	0.0	1.076593661890598	-0.7197219890801968	0.0	1.0947327815070478	-0.8482138469875729	0.0	1.0659209126129325	-0.9729719336747977	0.0	1.0969514062470882	-1.0120262915572686	0.0	1.0832009344334124	-1.0133502030271127	0.0	1.0541022776347986	-0.9878101648021165	0.0	1.0797675604989259	-0.7176028846516395	0.0	1.0909772051371345	-0.8457137420278291	0.0	1.0672546044140834	-0.9650477971364412	0.0	1.0945590374605718	-0.9998381243324135	0.0	1.0926361730278296	-0.9934993815465025	0.0	1.0529557837402757	-0.9793466967886789	0.0	1.0648791740152321	-0.5691476085334175	0.0	1.0608636795034347	-0.4891743475632913	0.0	1.0763188644501447	-0.5274229976214118	0.0	1.0535569757204237	-0.5673513059292565	0.0	1.0481616128747995	-0.5059764169878793	0.0	1.0510329627409642	-0.4393650763791786	0.0	1.0681581147834684	-0.5688084700559696	0.0	1.0973785821717765	-0.5175109289920145	0.0	1.1113085741117643	-0.46901006944005785	0.0
75	2.519083969465649	1.0787662118336647	-0.7547198763142892	0.0	1.0746521349827132	-0.7525685602792859	0.0	1.0955940140034588	-0.8819208795349952	0.0	1.062700254894556	-1.0035551179382998	0.0	1.0934047563902611	-1.0376989551317841	0.0	1.0794008664334023	-1.0399755190634619	0.0	1.050658069993315	-1.0174085781993063	0.0	1.0818038895043378	-0.7498327377355778	0.0	1.0908491218925502	-0.8794523668210529	0.0	1.064262436727422	-0.9961235980069434	0.0	1.0941911742154484	-1.0278462287328411	0.0	1.0900619661825561	-1.022388827564997	0.0	1.0490221046885386	-1.009051368276744	0.0	1.065244136040615	-0.5998890550160946	0.0	1.0624875814371848	-0.5200605748795327	0.0	1.0773299954144668	-0.5586088485464534	0.0	1.0512071664748084	-0.5998315961811894	0.0	1.0388903203103075	-0.5421355039470761	0.0	1.0383870176073424	-0.47527929304854444	0.0	1.0737355549565444	-0.6004295728803599	0.0	1.0984138547282238	-0.5510857763363509	0.0	1.1099460160635475	-0.5030492318710725	0.0
76	2.552671755725191	1.0784786801833306	-0.7874529656176409	0.0	1.0721097632431595	-0.7854035545876092	0.0	1.0966313428127354	-0.9155113348775747	0.0	1.0601323182070792	-1.0319570888949539	0.0	1.089956826337639	-1.059429152281189	0.0	1.075818662750143	-1.0628336823684004	0.0	1.048186589327189	-1.0442784363340438	0.0	1.0843182497355501	-0.7822119887158457	0.0	1.0900843397905553	-0.9132155850269057	0.0	1.0610590574392678	-1.0254929695508943	0.0	1.0941088572244049	-1.0521932518606303	0.0	1.0862952898534877	-1.0486049340523451	0.0	1.0453358227952396	-1.0360409583022268	0.0	1.066191446184862	-0.6302385980988916	0.0	1.0647941547667592	-0.5509953088636038	0.0	1.079184826821799	-0.5895325435849348	0.0	1.0490794170365725	-0.632388096522492	0.0	1.0311962348914738	-0.5783736715508099	0.0	1.0272616656701792	-0.5115112981559773	0.0	1.0797098184661789	-0.631674244011075	0.0	1.101088903855826	-0.5852022722731698	0.0	1.1103194343811493	-0.5379008457994363	0.0
